<?xml version="1.0" encoding="utf-8"?>
<!-- Generator: Adobe Illustrator 19.2.1, SVG Export Plug-In . SVG Version: 6.00 Build 0)  -->
<svg version="1.1" id="Слой_1" xmlns="http://www.w3.org/2000/svg" xmlns:xlink="http://www.w3.org/1999/xlink" x="0px" y="0px"
	 viewBox="0 0 513 259" style="enable-background:new 0 0 513 259;" xml:space="preserve">
<style type="text/css">
	.st0{fill:none;stroke:#FF1F4F;stroke-width:19;stroke-miterlimit:10;}
	.st1{fill:none;stroke:#000000;stroke-width:19;stroke-miterlimit:10;}
	.st2{fill:#FFFFFF;}
</style>
<path class="st0" d="M321.9,184.8c0,20-17.4,36.2-39,36.2c-21.5,0-39-16.2-39-36.2"/>
<path class="st1" d="M321.9,184.8"/>
<path class="st1" d="M237.5,185.6"/>
<g>
	<path class="st2" d="M95,60c-27.6,0-50,22.4-50,50c0,27.6,22.4,50,50,50c11.7,0,22.5-4,31-10.8V160h19v-49.5c0-0.1,0-0.3,0-0.4
		C145,82.4,122.6,60,95,60z M126,110v0.5c-0.2,16.9-14,30.6-31,30.6c-17.1,0-31-13.9-31-31c0-17.1,13.9-31,31-31
		C112.1,79,126,92.9,126,110L126,110z"/>
	<path class="st2" d="M398.7,60c-27.6,0-50,22.4-50,50c0,27.6,22.4,50,50,50s50-22.4,50-50C448.7,82.4,426.3,60,398.7,60z
		 M398.7,141c-17.1,0-31-13.9-31-31c0-17.1,13.9-31,31-31s31,13.9,31,31C429.7,127.1,415.8,141,398.7,141z"/>
	<path class="st2" d="M334,110.3c0-0.1,0-0.3,0-0.4V60h-19v11.1c-8.5-6.7-19.3-10.8-31-10.8c-27.6,0-50,22.4-50,50
		c0,27.6,22.3,50,49.9,50c10,0,18.4,4.4,24.3,11.9l15-11.7c-2.9-3.7-6.3-7-10-9.7C325.8,141.8,334,127,334,110.3z M284,141.3
		c-17.1,0-31-13.9-31-31c0-17.1,13.9-31,31-31c16.9,0,30.8,13.7,31,30.6v0.1h0c0,0.1,0,0.2,0,0.3C315,127.4,301.1,141.3,284,141.3z"
		/>
	<path class="st2" d="M182,60h-19v59v12v29h19v-29v-11.4c0-22.3,18-40.5,40-40.5v-19c-15,0-29.4,6.1-40,16V60z"/>
</g>
</svg>
