<svg xmlns="http://www.w3.org/2000/svg" width="69" height="83" viewBox="0 0 69 83">
  <defs>
    <style>
      .cls-1 {
        fill: #ced4df;
        fill-rule: evenodd;
      }
    </style>
  </defs>
  <path id="icon" class="cls-1" d="M2180.89,1265.88l-11-26.52a1.325,1.325,0,0,0-2.45,1.01l9.94,23.98-9.06-2.62a1.316,1.316,0,0,0-1.53.63l-4.56,8.26-10.66-25.73a26.735,26.735,0,1,0-26.49-10.29l-12.97,31.28a1.329,1.329,0,0,0,1.6,1.78l10.69-3.09,5.37,9.74a1.33,1.33,0,0,0,1.17.69h0.07a1.324,1.324,0,0,0,1.15-.82l10.27-24.78a1.322,1.322,0,0,0-2.44-1.02l-9.22,22.24-4.56-8.26a1.316,1.316,0,0,0-1.53-.63l-9.06,2.62L2127,1236.9a26.626,26.626,0,0,0,19.5,8.47c0.79,0,1.58-.03,2.35-0.1l11.99,28.91a1.324,1.324,0,0,0,1.15.82h0.07a1.3,1.3,0,0,0,1.16-.69l5.38-9.74,10.69,3.09A1.329,1.329,0,0,0,2180.89,1265.88Zm-58.45-47.19a24.055,24.055,0,1,1,24.06,24.03A24.079,24.079,0,0,1,2122.44,1218.69Zm39.37-4.98a1.3,1.3,0,0,0-1.04-.89l-8.92-1.5-4.17-8.01a1.336,1.336,0,0,0-2.36,0l-4.17,8.01-8.92,1.5a1.323,1.323,0,0,0-.73,2.23l6.34,6.45-1.34,8.94a1.322,1.322,0,0,0,.54,1.26,1.309,1.309,0,0,0,1.36.12l8.1-4.03,8.09,4.03a1.39,1.39,0,0,0,.6.14,1.3,1.3,0,0,0,.77-0.26,1.322,1.322,0,0,0,.54-1.26l-1.34-8.94,6.34-6.45A1.3,1.3,0,0,0,2161.81,1213.71Zm-9,6.4a1.316,1.316,0,0,0-.36,1.13l1.05,7.07-6.41-3.18a1.313,1.313,0,0,0-1.18,0l-6.41,3.18,1.06-7.07a1.353,1.353,0,0,0-.37-1.13l-5.02-5.1,7.06-1.19a1.3,1.3,0,0,0,.96-0.69l3.31-6.34,3.31,6.34a1.335,1.335,0,0,0,.96.7l7.06,1.18Zm13.77-.09a1.336,1.336,0,0,0-1.49,1.14,18.735,18.735,0,1,1,0-4.95,1.321,1.321,0,0,0,1.49,1.14,1.336,1.336,0,0,0,1.14-1.49,21.4,21.4,0,1,0,0,5.65A1.336,1.336,0,0,0,2166.58,1220.02Z" transform="translate(-2112 -1192)"/>
</svg>
