<svg xmlns="http://www.w3.org/2000/svg" width="83" height="83" viewBox="0 0 83 83">
  <defs>
    <style>
      .cls-1 {
        fill: #ced4df;
        fill-rule: evenodd;
      }
    </style>
  </defs>
  <path id="icon" class="cls-1" d="M559.849,1197.78H547.7v-4.46a1.322,1.322,0,0,0-1.325-1.32h-49.75a1.322,1.322,0,0,0-1.325,1.32v4.46H483.151a3.152,3.152,0,0,0-3.151,3.15v58.14a3.158,3.158,0,0,0,3.151,3.15h28.927v10.13H499.586a1.325,1.325,0,0,0,0,2.65H537.55a1.325,1.325,0,1,0,0-2.65h-6.628v-10.13h5.451a1.325,1.325,0,0,0,0-2.65H483.151a0.508,0.508,0,0,1-.5-0.5v-58.14a0.508,0.508,0,0,1,.5-0.5H495.3v48.36h-8.5a1.325,1.325,0,0,0,0,2.65h49.57a1.325,1.325,0,0,0,0-2.65h-10.4v-10.82a1.33,1.33,0,0,0-1.324-1.33H503.688a1.33,1.33,0,0,0-1.324,1.33v10.82h-4.415v-54.14h47.1v12.07a1.325,1.325,0,0,0,2.649,0v-6.29h12.15a0.508,0.508,0,0,1,.5.5v58.14a0.508,0.508,0,0,1-.5.5h-3.472a1.325,1.325,0,1,0,0,2.65h3.471a3.158,3.158,0,0,0,3.151-3.15v-58.14A3.152,3.152,0,0,0,559.849,1197.78Zm-31.576,74.57H514.727v-10.13h13.546v10.13Zm-23.26-33.06h18.312v9.5H505.013v-9.5Zm47.375-15.76c0-.02,0-0.03-0.009-0.05s-0.013-.06-0.02-0.09a0.227,0.227,0,0,1-.01-0.04c-0.009-.03-0.019-0.05-0.029-0.08l-0.011-.03-0.007-.02s0,0,0-.01l-4.694-11.69a1.326,1.326,0,0,0-2.459,0l-4.695,11.7a0.088,0.088,0,0,0-.009.02c0,0.01-.008.02-0.012,0.03-0.01.03-.02,0.06-0.028,0.08s-0.007.03-.011,0.05a0.526,0.526,0,0,0-.019.08c0,0.02-.006.03-0.009,0.05s-0.008.05-.01,0.07c0,0.05-.006.09-0.006,0.13v45.24a6.029,6.029,0,1,0,12.058,0v-45.24c0-.04,0-0.08-0.007-0.13C552.4,1223.58,552.391,1223.56,552.388,1223.53ZM543,1225.06h6.76v37.82H543v-37.82Zm3.38-9.49,2.746,6.84H543.63Zm0,56.78a3.386,3.386,0,0,1-3.38-3.38v-3.44h6.76v3.44A3.386,3.386,0,0,1,546.375,1272.35Zm-42.687-61.31h35.624a1.33,1.33,0,0,0,1.324-1.33v-9.32a1.33,1.33,0,0,0-1.324-1.33H503.688a1.33,1.33,0,0,0-1.324,1.33v9.32A1.33,1.33,0,0,0,503.688,1211.04Zm1.325-9.33h32.974v6.68H505.013v-6.68Zm34.3,11.97H503.688a1.325,1.325,0,0,0,0,2.65h35.624A1.325,1.325,0,0,0,539.312,1213.68Zm-14.662,7.07H503.688a1.325,1.325,0,0,0,0,2.65H524.65A1.325,1.325,0,0,0,524.65,1220.75Zm11.978,0h-6.68a1.325,1.325,0,1,0,0,2.65h6.68A1.325,1.325,0,0,0,536.628,1220.75Zm-11.978,5.3H503.688a1.325,1.325,0,0,0,0,2.65H524.65A1.325,1.325,0,0,0,524.65,1226.05Zm11.723,0h-6.425a1.325,1.325,0,1,0,0,2.65h6.425A1.325,1.325,0,0,0,536.373,1226.05Zm-11.723,5.29H503.688a1.325,1.325,0,0,0,0,2.65H524.65A1.325,1.325,0,0,0,524.65,1231.34Zm11.723,0h-6.425a1.325,1.325,0,1,0,0,2.65h6.425A1.325,1.325,0,0,0,536.373,1231.34Z" transform="translate(-480 -1192)"/>
</svg>
