<svg xmlns="http://www.w3.org/2000/svg" width="84" height="76" viewBox="0 0 84 76">
  <defs>
    <style>
      .cls-1 {
        fill: #ced4df;
        fill-rule: evenodd;
      }
    </style>
  </defs>
  <path id="icon" class="cls-1" d="M1321.9,1228.37a1.336,1.336,0,0,0-1.83-.46l-15.62,9.3a1.351,1.351,0,0,0,0,2.31l15.62,9.3a1.3,1.3,0,0,0,.68.19,1.328,1.328,0,0,0,1.15-.65,1.345,1.345,0,0,0-.46-1.84l-13.68-8.16,13.68-8.15A1.345,1.345,0,0,0,1321.9,1228.37Zm24.2,19.99a1.328,1.328,0,0,0,1.15.65,1.3,1.3,0,0,0,.68-0.19l15.62-9.3a1.351,1.351,0,0,0,0-2.31l-15.62-9.3a1.339,1.339,0,0,0-1.37,2.3l13.68,8.15-13.68,8.16A1.345,1.345,0,0,0,1346.1,1248.36Zm-6.97-20.05-12.49,18.61a1.338,1.338,0,0,0,.37,1.86,1.29,1.29,0,0,0,.74.23,1.363,1.363,0,0,0,1.12-.59l12.49-18.61A1.344,1.344,0,0,0,1339.13,1228.31Zm35.53-33.31h-81.32a1.34,1.34,0,0,0-1.34,1.34v73.32a1.34,1.34,0,0,0,1.34,1.34h81.32a1.34,1.34,0,0,0,1.34-1.34v-14.31a1.34,1.34,0,0,0-2.68,0v12.97h-78.64v-59.91h78.64v41.58a1.34,1.34,0,1,0,2.68,0v-53.65A1.34,1.34,0,0,0,1374.66,1195Zm-79.98,2.68h49.6v8.05h-49.6v-8.05Zm52.28,8.05v-8.05h26.36v8.05h-26.36Zm13.22-5.45a1.43,1.43,0,1,0,1.43,1.43A1.43,1.43,0,0,0,1360.18,1200.28Zm-7.32,0a1.43,1.43,0,1,0,1.43,1.43A1.43,1.43,0,0,0,1352.86,1200.28Zm14.65,0a1.43,1.43,0,1,0,1.43,1.43A1.43,1.43,0,0,0,1367.51,1200.28Z" transform="translate(-1292 -1195)"/>
</svg>
